<?xml version="1.0" encoding="utf-8"?>
<!-- Generator: Adobe Illustrator 24.3.0, SVG Export Plug-In . SVG Version: 6.00 Build 0)  -->
<svg version="1.1" id="Layer_1" xmlns="http://www.w3.org/2000/svg" xmlns:xlink="http://www.w3.org/1999/xlink" x="0px" y="0px"
	 viewBox="0 0 1024 1024" style="enable-background:new 0 0 1024 1024;" xml:space="preserve">
<style type="text/css">
	.st0{fill:#FFFFFF;}
</style>
<g>
	<g>
		<g>
			<g>
				<path class="st0" d="M454.8,953.9c0,31.8,25.4,57.2,50.9,57.2c25.4,0,50.9-25.4,50.9-57.2c0-31.8-25.4-57.2-50.9-57.2
					C480.2,896.7,454.8,922.1,454.8,953.9z"/>
			</g>
		</g>
		<g>
			<g>
				<path class="st0" d="M683.7,330.9H340.3c-44.5,0-82.6,38.1-82.6,89v50.9c0,44.5,38.1,82.6,82.6,82.6h337
					c44.5,0,82.6-38.1,82.6-82.6v-50.9C766.3,369,728.2,330.9,683.7,330.9z M365.8,489.8c-25.4,0-44.5-19.1-44.5-44.5
					c0-25.4,19.1-50.9,44.5-50.9c25.4,0,44.5,19.1,44.5,50.9C410.3,470.7,391.2,489.8,365.8,489.8z M658.2,489.8
					c-25.4,0-50.9-19.1-50.9-44.5c0-25.4,19.1-50.9,44.5-50.9s50.9,19.1,50.9,50.9C702.7,470.7,683.7,489.8,658.2,489.8z"/>
			</g>
		</g>
		<g>
			<g>
				<path class="st0" d="M664.6,629.7c-89,69.9-216.2,69.9-305.2,0c-12.7-6.4-12.7-19.1-6.4-25.4c6.4-6.4,12.7-6.4,25.4,0
					c82.6,63.6,190.7,63.6,273.4,0c6.4-6.4,19.1-6.4,25.4,0C677.3,610.6,677.3,623.3,664.6,629.7z"/>
			</g>
		</g>
		<g>
			<path class="st0" d="M512,966.6v-25.4c120.8,0,235.2-50.9,317.9-133.5s133.5-197.1,133.5-317.9s-44.5-235.2-133.5-317.9
				S632.8,32,512,32S276.8,82.9,194.1,165.6S67,356.3,60.6,477.1h120.8v25.4H35.2v-12.7c0-127.2,50.9-247.9,139.9-337
				S384.8,13,512,13s247.9,50.9,337,139.9c89,89,139.9,209.8,139.9,337S938,737.7,849,826.8C759.9,915.8,639.2,966.6,512,966.6z"/>
		</g>
		<g>
			<path class="st0" d="M664.6,769.5H359.4c-101.7,0-178-82.6-178-184.4V419.9c0-50.9,19.1-95.4,50.9-127.2
				c25.4-38.1,69.9-57.2,120.8-57.2l0,0h324.2c44.5,0,89,19.1,120.8,57.2c31.8,38.1,50.9,82.6,50.9,127.2v158.9
				C849,686.9,766.3,769.5,664.6,769.5z M353.1,254.6c-38.1,0-76.3,19.1-108.1,50.9c-25.4,31.8-44.5,69.9-44.5,114.4v158.9
				c0,89,69.9,165.3,158.9,165.3h311.5c89,0,158.9-76.3,158.9-165.3V419.9c0-44.5-12.7-82.6-44.5-114.4
				c-25.4-31.8-63.6-50.9-108.1-50.9H353.1L353.1,254.6z"/>
		</g>
		<g>
			<path class="st0" d="M664.6,235.5C670.9,235.5,670.9,235.5,664.6,235.5c-38.1-38.1-89-63.6-152.6-63.6s-114.4,25.4-158.9,63.6
				h6.4H664.6L664.6,235.5z"/>
		</g>
	</g>
</g>
</svg>
